<svg xmlns="http://www.w3.org/2000/svg" viewBox="0 0 512 514" fill="currentColor">
  <path fill-rule="evenodd" clip-rule="evenodd" d="M503.16 323.56C466.76 452.65 347.9 549.5 206.8 547.33C93.54 545.55 -7.76 480.64 -49.07 380.53L50.3 315.77C80.35 399.48 167.4 457.75 268.23 457.75C312.01 457.75 352.79 444.77 386.2 422.43L503.16 323.56Z"/>
  <path fill-rule="evenodd" clip-rule="evenodd" d="M59.46 340.15C21.65 301.53 0 249.04 0 195.28C0 89.56 81.27 2 182.79 0.10001L181.92 119.63C151.44 120.62 122.57 133.84 101.11 156.21C79.64 178.58 67.29 208.24 67.02 239.12L67.02 239.55C67.02 263.94 74.14 287.24 86.49 306.37L59.46 340.15Z"/>
  <path fill-rule="evenodd" clip-rule="evenodd" d="M255.72 0.100281L255.72 119.64C322.45 119.64 375.72 172.93 375.72 239.64C375.72 306.35 322.45 359.64 255.72 359.64L255.72 479.18C387.64 479.18 496.72 370.1 496.72 239.64C496.72 109.18 387.64 0.100281 255.72 0.100281Z"/>
</svg>
